<svg xmlns="http://www.w3.org/2000/svg" width="124" height="44.789" viewBox="0 0 124 44.789">
  <g id="BrandLogo_Bozita_White" transform="translate(0)">
    <g id="Group_36" data-name="Group 36" transform="translate(0.537 37.422)">
      <g id="Group_35" data-name="Group 35" transform="translate(0 0)">
        <g id="Group_34" data-name="Group 34">
          <g id="Group_33" data-name="Group 33">
            <path id="Path_57" data-name="Path 57" d="M11.8,72.481l.292-.5a.187.187,0,0,1,.276-.056,2.693,2.693,0,0,0,1.225.5.678.678,0,0,0,.739-.625c0-.414-.349-.7-1.031-.974-.764-.309-1.526-.8-1.526-1.753A1.621,1.621,0,0,1,13.6,67.515a2.854,2.854,0,0,1,1.623.544.2.2,0,0,1,.049.267l-.308.463a.214.214,0,0,1-.284.1,2.656,2.656,0,0,0-1.129-.447.646.646,0,0,0-.713.568c0,.381.3.641.957.909.788.316,1.7.787,1.7,1.833a1.714,1.714,0,0,1-1.867,1.607,2.609,2.609,0,0,1-1.785-.633c-.073-.073-.114-.113-.04-.243" transform="translate(-11.76 -67.515)" fill="#fff"/>
            <path id="Path_58" data-name="Path 58" d="M19.373,67.791a.141.141,0,0,1,.146-.195h.747a.165.165,0,0,1,.146.115l.844,3.237h.032l1.29-3.343a.13.13,0,0,1,.138-.09h.146A.131.131,0,0,1,23,67.6l1.3,3.343h.032l.827-3.237A.167.167,0,0,1,25.3,67.6h.746a.141.141,0,0,1,.146.195l-1.534,5.454a.155.155,0,0,1-.146.113h-.13a.138.138,0,0,1-.138-.089L22.8,69.592h-.04l-1.437,3.676a.137.137,0,0,1-.138.089h-.13a.156.156,0,0,1-.146-.113Z" transform="translate(-14.442 -67.515)" fill="#fff"/>
            <path id="Path_59" data-name="Path 59" d="M32.414,67.8a.153.153,0,0,1,.154-.154h3.3a.154.154,0,0,1,.154.154v.665a.154.154,0,0,1-.154.155h-2.4v1.331h2a.159.159,0,0,1,.154.154v.673a.154.154,0,0,1-.154.154h-2v1.42h2.4a.154.154,0,0,1,.154.155v.665a.154.154,0,0,1-.154.154h-3.3a.153.153,0,0,1-.154-.154Z" transform="translate(-19.044 -67.559)" fill="#fff"/>
            <path id="Path_60" data-name="Path 60" d="M40.812,67.795a.152.152,0,0,1,.146-.155h1.923a2.84,2.84,0,1,1,0,5.681H40.958a.152.152,0,0,1-.146-.154Zm1.971,4.536a1.854,1.854,0,0,0,0-3.708h-.924V72.33Z" transform="translate(-22.006 -67.559)" fill="#fff"/>
            <rect id="Rectangle_35" data-name="Rectangle 35" width="1.063" height="5.68" rx="0.238" transform="translate(25.458 0.082)" fill="#fff"/>
            <path id="Path_61" data-name="Path 61" d="M55.506,72.481l.292-.5a.188.188,0,0,1,.276-.056,2.686,2.686,0,0,0,1.225.5.678.678,0,0,0,.739-.625c0-.414-.349-.7-1.031-.974-.763-.309-1.526-.8-1.526-1.753a1.621,1.621,0,0,1,1.826-1.558,2.854,2.854,0,0,1,1.623.544.2.2,0,0,1,.049.267l-.308.463a.214.214,0,0,1-.284.1,2.656,2.656,0,0,0-1.128-.447.647.647,0,0,0-.714.568c0,.381.3.641.958.909.787.316,1.7.787,1.7,1.833a1.715,1.715,0,0,1-1.867,1.607,2.609,2.609,0,0,1-1.785-.633c-.073-.073-.114-.113-.04-.243" transform="translate(-27.175 -67.515)" fill="#fff"/>
            <path id="Path_62" data-name="Path 62" d="M63.862,67.8a.159.159,0,0,1,.154-.154h.755a.154.154,0,0,1,.154.154v2.15H67.57V67.8a.154.154,0,0,1,.154-.154h.746a.159.159,0,0,1,.154.154v5.371a.159.159,0,0,1-.154.154h-.746a.154.154,0,0,1-.154-.154v-2.24H64.925v2.24a.154.154,0,0,1-.154.154h-.755a.159.159,0,0,1-.154-.154Z" transform="translate(-30.136 -67.559)" fill="#fff"/>
            <path id="Path_63" data-name="Path 63" d="M78.577,67.661a.152.152,0,0,1,.154-.146h.2L82.309,71.1h.008V67.751a.154.154,0,0,1,.155-.154h.746a.159.159,0,0,1,.154.154v5.461a.152.152,0,0,1-.154.146h-.194l-3.393-3.724h-.008v3.488a.154.154,0,0,1-.154.154h-.739a.159.159,0,0,1-.154-.154Z" transform="translate(-35.326 -67.515)" fill="#fff"/>
            <path id="Path_64" data-name="Path 64" d="M88.144,73.065l2.524-5.46a.145.145,0,0,1,.137-.09h.082a.138.138,0,0,1,.138.09l2.5,5.46a.143.143,0,0,1-.138.211H92.68a.233.233,0,0,1-.236-.162l-.4-.876H89.621l-.4.876a.245.245,0,0,1-.236.162h-.706a.143.143,0,0,1-.138-.211m3.505-1.728-.811-1.785h-.025l-.795,1.785Z" transform="translate(-38.695 -67.515)" fill="#fff"/>
            <path id="Path_65" data-name="Path 65" d="M98.586,68.614H97.344a.154.154,0,0,1-.154-.154v-.665a.155.155,0,0,1,.154-.155h3.547a.155.155,0,0,1,.154.155v.665a.154.154,0,0,1-.154.154H99.648v4.552a.16.16,0,0,1-.154.155H98.74a.16.16,0,0,1-.153-.155Z" transform="translate(-41.891 -67.559)" fill="#fff"/>
            <path id="Path_66" data-name="Path 66" d="M105.35,67.8a.16.16,0,0,1,.154-.154h.771a.154.154,0,0,1,.154.154v3.319a1.182,1.182,0,1,0,2.362.008V67.8a.153.153,0,0,1,.153-.154h.771a.159.159,0,0,1,.154.154V71.17a2.26,2.26,0,0,1-4.519,0Z" transform="translate(-44.769 -67.559)" fill="#fff"/>
            <path id="Path_67" data-name="Path 67" d="M115.516,67.8a.154.154,0,0,1,.154-.154h2.321a1.758,1.758,0,0,1,1.769,1.744,1.792,1.792,0,0,1-1.2,1.639l1.112,2.06a.154.154,0,0,1-.138.236h-.852a.142.142,0,0,1-.13-.072l-1.078-2.15h-.9v2.069a.159.159,0,0,1-.155.154h-.746a.154.154,0,0,1-.154-.154Zm2.385,2.434a.825.825,0,0,0,.8-.827.806.806,0,0,0-.8-.786h-1.322v1.614Z" transform="translate(-48.354 -67.559)" fill="#fff"/>
            <path id="Path_68" data-name="Path 68" d="M123.742,73.065l2.523-5.46a.146.146,0,0,1,.138-.09h.082a.138.138,0,0,1,.138.09l2.5,5.46a.143.143,0,0,1-.139.211h-.706a.233.233,0,0,1-.236-.162l-.4-.876h-2.426l-.4.876a.245.245,0,0,1-.236.162h-.706a.143.143,0,0,1-.138-.211m3.505-1.728-.812-1.785h-.025l-.795,1.785Z" transform="translate(-51.25 -67.515)" fill="#fff"/>
            <g id="Group_31" data-name="Group 31" transform="translate(79.275 0.001)">
              <path id="Path_69" data-name="Path 69" d="M134.229,67.8a.154.154,0,0,1,.154-.154h.747a.16.16,0,0,1,.154.154v4.552h2.069a.154.154,0,0,1,.154.155v.665a.154.154,0,0,1-.154.154h-2.97a.154.154,0,0,1-.154-.154Z" transform="translate(-134.229 -67.56)" fill="#fff"/>
              <path id="Path_70" data-name="Path 70" d="M147.671,67.516a2.915,2.915,0,0,1,2.921,2.928,2.99,2.99,0,0,1-1.582,2.6l1.014,1.6a.153.153,0,0,1-.129.243h-.86a.181.181,0,0,1-.131-.08l-.867-1.469a3.2,3.2,0,0,1-.366.024,2.921,2.921,0,0,1,0-5.841m0,4.787a1.866,1.866,0,1,0-1.858-1.858,1.87,1.87,0,0,0,1.858,1.858" transform="translate(-137.943 -67.516)" fill="#fff"/>
            </g>
            <g id="Group_32" data-name="Group 32" transform="translate(93.579)">
              <path id="Path_71" data-name="Path 71" d="M156.327,67.8a.159.159,0,0,1,.154-.154h.771a.154.154,0,0,1,.154.154v3.319a1.182,1.182,0,1,0,2.362.008V67.8a.153.153,0,0,1,.153-.154h.771a.159.159,0,0,1,.154.154V71.17a2.26,2.26,0,0,1-4.519,0Z" transform="translate(-156.327 -67.559)" fill="#fff"/>
              <path id="Path_72" data-name="Path 72" d="M165.217,73.065l2.524-5.46a.145.145,0,0,1,.138-.09h.082a.139.139,0,0,1,.138.09l2.5,5.46a.143.143,0,0,1-.138.211h-.706a.233.233,0,0,1-.236-.162l-.4-.876h-2.426l-.4.876a.245.245,0,0,1-.236.162h-.706a.143.143,0,0,1-.139-.211m3.506-1.728-.812-1.785h-.025l-.795,1.785Z" transform="translate(-159.457 -67.515)" fill="#fff"/>
              <path id="Path_73" data-name="Path 73" d="M175.705,67.8a.154.154,0,0,1,.154-.154h.746a.159.159,0,0,1,.154.154v4.552h2.07a.154.154,0,0,1,.153.155v.665a.153.153,0,0,1-.153.154h-2.97a.154.154,0,0,1-.154-.154Z" transform="translate(-163.162 -67.559)" fill="#fff"/>
              <rect id="Rectangle_36" data-name="Rectangle 36" width="1.063" height="5.68" rx="0.238" transform="translate(17.306 0.082)" fill="#fff"/>
              <path id="Path_74" data-name="Path 74" d="M188.431,68.614h-1.242a.154.154,0,0,1-.154-.154v-.665a.155.155,0,0,1,.154-.155h3.547a.155.155,0,0,1,.154.155v.665a.154.154,0,0,1-.154.154h-1.242v4.552a.16.16,0,0,1-.154.155h-.754a.16.16,0,0,1-.154-.155Z" transform="translate(-167.158 -67.559)" fill="#fff"/>
              <path id="Path_75" data-name="Path 75" d="M196.392,70.586l-1.849-2.71a.15.15,0,0,1,.129-.236h.828a.163.163,0,0,1,.13.072l1.3,1.867,1.3-1.867a.164.164,0,0,1,.13-.072h.836a.151.151,0,0,1,.13.236l-1.875,2.7v2.589a.159.159,0,0,1-.154.155h-.746a.154.154,0,0,1-.154-.155Z" transform="translate(-169.797 -67.559)" fill="#fff"/>
            </g>
          </g>
        </g>
      </g>
    </g>
    <g id="Group_38" data-name="Group 38" transform="translate(21.293)">
      <path id="Path_76" data-name="Path 76" d="M183.863,42.781h7.01a.471.471,0,0,0,.466-.529l-3.949-30.823a.472.472,0,0,0-.468-.412H175.3a.47.47,0,0,0-.467.411l-3.949,30.823a.47.47,0,0,0,.466.529h7.008a.47.47,0,0,0,.469-.43l.466-4.954.017-.016h3.6l.018.016.465,4.954a.471.471,0,0,0,.469.43m-4.075-11.145,1.321-14.21,1.322,14.21a.017.017,0,0,1-.017.018h-2.609a.016.016,0,0,1-.017-.018" transform="translate(-88.636 -10.166)" fill="#fff"/>
      <g id="Group_37" data-name="Group 37">
        <path id="Path_77" data-name="Path 77" d="M131.532,11.015h7.047a.48.48,0,0,1,.48.48V42.308a.471.471,0,0,1-.472.471h-7.056a.469.469,0,0,1-.468-.469V11.483a.467.467,0,0,1,.468-.468" transform="translate(-74.593 -10.165)" fill="#fff"/>
        <path id="Path_78" data-name="Path 78" d="M149.932,42.309V17.439h-4.273a.469.469,0,0,1-.469-.469V11.487a.471.471,0,0,1,.474-.471l18.335,0a.471.471,0,0,1,.463.536l-.708,5.485a.471.471,0,0,1-.466.4h-5.354V42.31a.472.472,0,0,1-.472.472H150.4a.473.473,0,0,1-.473-.473" transform="translate(-79.575 -10.165)" fill="#fff"/>
        <path id="Path_79" data-name="Path 79" d="M93.607,16.745a7.786,7.786,0,0,0-1.421-3.673,7.443,7.443,0,0,0-3.173-2.527A11.249,11.249,0,0,0,84.566,9.7a11.008,11.008,0,0,0-4.572.892,7.562,7.562,0,0,0-3.112,2.561,7.948,7.948,0,0,0-1.37,3.679q-.217,2.018-.217,6.856v5.491q0,4.958.227,6.935a7.761,7.761,0,0,0,1.43,3.671,7.314,7.314,0,0,0,3.171,2.528,11.227,11.227,0,0,0,4.444.845,10.924,10.924,0,0,0,4.567-.891,7.4,7.4,0,0,0,3.112-2.551,7.865,7.865,0,0,0,1.374-3.687c.146-1.337.221-3.626.221-6.85V23.69a68.716,68.716,0,0,0-.232-6.945m-7.54,18.142c0,.776-.039,1.991-1.5,1.991s-1.5-1.215-1.5-1.991V17.969c0-.775.039-1.974,1.5-1.974s1.5,1.2,1.5,1.974Z" transform="translate(-54.924 -9.702)" fill="#fff"/>
        <path id="Path_80" data-name="Path 80" d="M118.863,17.783l-5.791,18.565H118.5a.471.471,0,0,1,.471.47V42.31a.471.471,0,0,1-.471.47H101.677a.329.329,0,0,1-.21-.582,10.35,10.35,0,0,0,2.776-4.086c.811-1.506,6.322-20.67,6.322-20.67h-5.651a.47.47,0,0,1-.462-.379,9.756,9.756,0,0,0-3.144-5.47.328.328,0,0,1,.21-.579H118.5a.471.471,0,0,1,.471.47V17.04a2.385,2.385,0,0,1-.107.744" transform="translate(-64.057 -10.165)" fill="#fff"/>
        <path id="Path_81" data-name="Path 81" d="M61.991,27.658A5.813,5.813,0,0,0,58.25,25.5a5.575,5.575,0,0,0,3.264-1.768,6.241,6.241,0,0,0,.9-3.431c0-.56,0-1.434,0-1.981,0-5.383-2.879-7.562-10.868-7.562H44.294a.47.47,0,0,0-.47.47V42.219a.47.47,0,0,0,.47.47h9.379c8.749,0,9.294-4.288,9.294-7.473v-2.95a8.584,8.584,0,0,0-.977-4.608m-6.977,5.58c0,4.007-.517,4.012-2.411,4.012h-.887v-8.9h.615c1.681,0,2.685.087,2.685,3.948,0,.538,0,.936,0,.936m-2.665-9.861h-.633v-7.01s.27,0,.559,0c1.477-.01,2.739,0,2.739,3,0,4.079-.792,4.009-2.665,4.009" transform="translate(-43.824 -10.074)" fill="#fff"/>
      </g>
    </g>
    <g id="Group_44" data-name="Group 44" transform="translate(0 0.684)">
      <g id="Group_41" data-name="Group 41" transform="translate(0)">
        <path id="Path_121" data-name="Path 121" d="M17.994,10.758h-6.67a.439.439,0,0,0-.394.47V23.67h7.064Z" transform="translate(-10.93 -10.758)" fill="#fff"/>
      </g>
      <g id="Group_42" data-name="Group 42" transform="translate(11.48)">
        <path id="Path_122" data-name="Path 122" d="M35.334,10.758h-6.67V23.67h7.065V11.228a.439.439,0,0,0-.394-.47" transform="translate(-28.664 -10.758)" fill="#fff"/>
      </g>
      <g id="Group_43" data-name="Group 43" transform="translate(0 17.327)">
        <path id="Path_123" data-name="Path 123" d="M28.664,52.13h6.67a.439.439,0,0,0,.395-.47V37.526H28.664Z" transform="translate(-17.185 -37.526)" fill="#fff"/>
        <path id="Path_124" data-name="Path 124" d="M11.324,52.13h6.67v-14.6H10.93V51.66a.438.438,0,0,0,.394.47" transform="translate(-10.93 -37.526)" fill="#fff"/>
      </g>
    </g>
  </g>
</svg>
