<svg id="BrandLogo_Katty_White" xmlns="http://www.w3.org/2000/svg" width="130" height="29.664" viewBox="0 0 130 29.664">
  <path id="Path_414" data-name="Path 414" d="M36.286,14.083l3.335,6.928h-6.67ZM36.286,0,23.172,24.862,15.8,15.642,26.735,1.621H17.216L8.146,14.194V1.621H0V29.664H8.146V17.422l9.07,12.242H28.785l1.221-2.536h12.56l1.221,2.536h8.146Z" fill="#fff"/>
  <path id="Path_415" data-name="Path 415" d="M193.781,5.957H177.85v6.949h7.785V33.985h8.146V12.906h7.785V5.957Z" transform="translate(-129.541 -4.321)" fill="#fff"/>
  <path id="Path_416" data-name="Path 416" d="M290.077,5.957H274.146v6.949h7.785V33.985h8.146V12.906h7.785V5.957Z" transform="translate(-199.679 -4.321)" fill="#fff"/>
  <path id="Path_417" data-name="Path 417" d="M390.11,5.957l-6.88,11.765L376.35,5.957H368.2l10.953,18.457v9.571H387.3V24.414L398.256,5.957Z" transform="translate(-268.256 -4.321)" fill="#fff"/>
</svg>
