<svg id="BrandLogo_Doggy_White" xmlns="http://www.w3.org/2000/svg" width="138" height="43.211" viewBox="0 0 138 43.211">
  <g id="Group_844" data-name="Group 844" transform="translate(0 0)">
    <path id="Path_284" data-name="Path 284" d="M18.564,8.943a12.032,12.032,0,0,0-6.423-.658c-3,.479-8.329,1.533-10.916,2.06A1.533,1.533,0,0,0,.031,12.163C1.5,19.6,3.034,26.77,4.5,34.2a1.616,1.616,0,0,0,1.9,1.271c3.51-.711,11.682-2.025,12.257-2.243,3.672-1.4,5.88-4.08,6.744-8.3a17.247,17.247,0,0,0-.7-9.44,10.507,10.507,0,0,0-6.134-6.551m-1.99,16a3.392,3.392,0,0,1-2.686,2.763c-.4.1-.812.174-1.232.243a.9.9,0,0,1-1.018-.7L9.553,16.45a.818.818,0,0,1,.689-.969c.623-.092,1.229-.179,1.838-.221a3.41,3.41,0,0,1,2.994,1.4,8.7,8.7,0,0,1,1.772,5.2,13.271,13.271,0,0,1-.272,3.086" transform="translate(0 -3.115)" fill="#fff"/>
    <path id="Path_285" data-name="Path 285" d="M180.783,5.078a.728.728,0,0,0-.782.966c1.2,3.211,4.565,12.764,6.276,17.731a3.212,3.212,0,0,1,.149,1.7c-.266,1.429-.625,4.535-.894,5.889a.641.641,0,0,0,.562.824c1.612.274,5.364.893,6.985,1.169a.821.821,0,0,0,.834-.595c.236-1.367.746-4.337.99-5.881a3.342,3.342,0,0,1,.667-1.566c3.138-4.127,9.212-11.621,11.33-14.262a.711.711,0,0,0-.4-1.136c-1.812-.527-8.351-1.964-8.41-1.979-.574-.149-.707.02-.953.436-1.63,2.772-4.736,7.685-4.788,7.76-.027-.088-1.581-5.956-2.27-9.112-.1-.474-.323-.612-.768-.722Z" transform="translate(-69.059 -1.946)" fill="#fff"/>
    <path id="Path_286" data-name="Path 286" d="M66.679,5.1a14.189,14.189,0,0,0-16.387-.824c-4.5,2.949-6.612,7.19-6.285,11.928a13.683,13.683,0,0,0,2.722,7.4,13.422,13.422,0,0,0,21.915-.733c3.938-5.625,3.293-13.47-1.965-17.767M58,20.8a5.2,5.2,0,0,1-5.431-4.9,5.4,5.4,0,0,1,4.571-6.007,5.145,5.145,0,0,1,5.494,5.041A5.428,5.428,0,0,1,58,20.8" transform="translate(-16.875 -0.789)" fill="#fff"/>
    <path id="Path_287" data-name="Path 287" d="M163.011,16.542a.686.686,0,0,0-.59-.748c-.85-.118-2.486-.421-5.821-.781-3.05-.329-4.516-.45-5.257-.534a.645.645,0,0,0-.713.563l-.555,3.891a.645.645,0,0,0,.573.721c.51.053,1.2.126,1.619.176.259.03.26.261.15.352a4.274,4.274,0,0,1-2.82.893A5.37,5.37,0,0,1,144.53,15.6c.045-3.026,2.57-5.654,5.34-5.463a4.58,4.58,0,0,1,4.035,2.63.636.636,0,0,0,.883.252l6.267-3.643a.638.638,0,0,0,.224-.886,12.077,12.077,0,0,0-1.643-2.108,13.863,13.863,0,0,0-16-2.54c-4.776,2.468-7.5,6.316-7.667,11.062a14.767,14.767,0,0,0,1.976,7.937,13.44,13.44,0,0,0,21.983,1.207,13.963,13.963,0,0,0,3.082-7.506" transform="translate(-52.179 -0.903)" fill="#fff"/>
    <path id="Path_288" data-name="Path 288" d="M116.793,13.217a.687.687,0,0,0-.661-.687c-.857-.035-2-.176-5.612-.23-3.068-.046-4.709.039-5.454.028a.645.645,0,0,0-.654.63l-.117,3.8a.645.645,0,0,0,.641.661c.513,0,1.207.008,1.629.017.261,0,.283.234.183.336a4.273,4.273,0,0,1-2.718,1.165,5.37,5.37,0,0,1-5.581-4.954c-.251-3.017,2-5.879,4.779-5.96a4.581,4.581,0,0,1,4.274,2.222.636.636,0,0,0,.9.165l5.88-4.239a.637.637,0,0,0,.136-.9,12.022,12.022,0,0,0-1.841-1.937c-4.486-3.719-11.33-4.557-16.3-1.326a13.24,13.24,0,0,0-6.421,12.126,14.879,14.879,0,0,0,3.055,7.7c5.832,7.413,16.168,6.365,21.684-.946a11.291,11.291,0,0,0,2.191-7.669" transform="translate(-34.474 0)" fill="#fff"/>
  </g>
  <g id="Group_845" data-name="Group 845" transform="translate(35.213 32.741)">
    <path id="Path_289" data-name="Path 289" d="M65.181,57.874l-3.195,6.7c-.19.381-.381.548-.727.548h-.131c-.358,0-.548-.167-.727-.548l-3.206-6.7c-.179-.381.107-.56.476-.56H58.7a.767.767,0,0,1,.775.56l1.716,4.219,1.788-4.219a.79.79,0,0,1,.775-.56H64.7c.37,0,.656.179.477.56" transform="translate(-57.14 -54.736)" fill="#fff"/>
    <path id="Path_290" data-name="Path 290" d="M77.858,62.9l-3.195-6.723a1.311,1.311,0,0,0-.1-.174,1.524,1.524,0,0,0,.817-1.343,1.55,1.55,0,0,0-3.1,0A1.525,1.525,0,0,0,73.1,56a1.3,1.3,0,0,0-.1.174L69.8,62.9c-.166.358.024.56.394.56h1.2c.37,0,.43-.19.572-.56l.3-.715h3.052l.286.715c.143.37.215.56.584.56h1.275c.37,0,.561-.2.394-.56m-4.029-8.717a.477.477,0,1,1-.465.476.476.476,0,0,1,.465-.476m-.989,6.6.989-2.384.942,2.384Z" transform="translate(-61.975 -53.13)" fill="#fff"/>
    <path id="Path_291" data-name="Path 291" d="M91.451,64.967a1.943,1.943,0,0,1-.955.238c-.8,0-1.239-.345-1.716-1.2l-.512-.977c-.214-.418-.31-.775-.93-.775h-.37V64.5a.56.56,0,0,1-.56.56h-.977a.561.561,0,0,1-.561-.56V57.874a.56.56,0,0,1,.561-.56h2.885c1.99,0,3.063.965,3.063,2.527a2.237,2.237,0,0,1-1.645,2.182.991.991,0,0,1,.3.393l.322.608c.084.155.179.333.322.37A.548.548,0,0,0,91,63.357c.263-.095.37.012.465.322l.238.715a.39.39,0,0,1-.25.573M88.28,60.842a.883.883,0,0,0,.965-.894.9.9,0,0,0-.965-.929H86.968v1.823Z" transform="translate(-67.782 -54.736)" fill="#fff"/>
    <path id="Path_292" data-name="Path 292" d="M97.559,61.1a3.981,3.981,0,0,1,4.112-4.017,4.124,4.124,0,0,1,2.92,1.144.5.5,0,0,1-.012.8l-.572.524a.54.54,0,0,1-.786-.012,2.273,2.273,0,0,0-1.478-.572,2.134,2.134,0,0,0,.047,4.267,1.981,1.981,0,0,0,1.3-.453,1.565,1.565,0,0,0,.536-.834H102.3a.491.491,0,0,1-.548-.548V60.98a.488.488,0,0,1,.548-.537h2.92a.5.5,0,0,1,.548.548v.2a3.8,3.8,0,0,1-1.18,2.777,4.118,4.118,0,0,1-2.92,1.144A3.968,3.968,0,0,1,97.559,61.1" transform="translate(-72.651 -54.647)" fill="#fff"/>
    <path id="Path_293" data-name="Path 293" d="M119.586,62.9l-3.195-6.723a1.31,1.31,0,0,0-.1-.174,1.524,1.524,0,0,0,.817-1.343,1.55,1.55,0,0,0-3.1,0A1.524,1.524,0,0,0,114.826,56a1.243,1.243,0,0,0-.1.174L111.529,62.9c-.167.358.023.56.393.56h1.2c.37,0,.43-.19.572-.56l.3-.715h3.052l.286.715c.143.37.215.56.584.56h1.276c.369,0,.56-.2.393-.56m-4.029-8.717a.477.477,0,1,1-.465.476.476.476,0,0,1,.465-.476m-.989,6.6.989-2.384.942,2.384Z" transform="translate(-77.989 -53.13)" fill="#fff"/>
    <path id="Path_294" data-name="Path 294" d="M133.178,64.967a1.939,1.939,0,0,1-.954.238c-.8,0-1.239-.345-1.716-1.2L130,63.024c-.214-.418-.311-.775-.93-.775h-.37V64.5a.508.508,0,0,1-.56.56h-.977a.509.509,0,0,1-.561-.56V57.874a.509.509,0,0,1,.561-.56h2.885c1.99,0,3.063.965,3.063,2.527a2.236,2.236,0,0,1-1.645,2.182,1,1,0,0,1,.3.393l.322.608c.083.155.178.333.322.37a.549.549,0,0,0,.322-.036c.263-.095.37.012.465.322l.238.715a.391.391,0,0,1-.25.573m-3.171-4.125a.883.883,0,0,0,.966-.894.9.9,0,0,0-.966-.929H128.7v1.823Z" transform="translate(-83.795 -54.736)" fill="#fff"/>
    <path id="Path_295" data-name="Path 295" d="M140.213,64.5V57.875a.509.509,0,0,1,.561-.56h2.944a3.879,3.879,0,1,1,0,7.747h-2.944a.509.509,0,0,1-.561-.56m3.421-1.144a2.173,2.173,0,0,0,0-4.338h-1.323v4.338Z" transform="translate(-89.02 -54.736)" fill="#fff"/>
    <path id="Path_296" data-name="Path 296" d="M160.957,65.017h-1.275c-.37,0-.441-.19-.584-.56l-.286-.715h-3.052l-.3.715c-.143.37-.2.56-.572.56h-1.2c-.37,0-.561-.2-.394-.56l3.195-6.723a.827.827,0,0,1,.775-.537h.131a.812.812,0,0,1,.763.537l3.195,6.723c.167.358-.024.56-.394.56m-2.694-2.682-.942-2.384-.989,2.384Z" transform="translate(-94.016 -54.691)" fill="#fff"/>
  </g>
</svg>
