<svg xmlns="http://www.w3.org/2000/svg" width="255.619" height="60" viewBox="0 0 255.619 60">
  <g id="Nav_DoggyLogoBlack" transform="translate(-848.031 -287.94)">
    <g id="Group_844" data-name="Group 844" transform="translate(848.031 287.941)">
      <path id="Path_284" data-name="Path 284" d="M34.387,9.646a22.287,22.287,0,0,0-11.9-1.218c-5.561.887-15.427,2.84-20.219,3.816A2.839,2.839,0,0,0,.057,15.611C2.78,29.383,5.621,42.667,8.343,56.438a2.994,2.994,0,0,0,3.513,2.355c6.5-1.316,21.639-3.751,22.7-4.155,6.8-2.589,10.891-7.558,12.492-15.372a31.947,31.947,0,0,0-1.3-17.485A19.463,19.463,0,0,0,34.387,9.646M30.7,39.286A6.283,6.283,0,0,1,25.727,44.4c-.743.193-1.5.323-2.282.45a1.658,1.658,0,0,1-1.886-1.3c-1.281-6.627-2.559-13.246-3.864-20a1.515,1.515,0,0,1,1.276-1.8c1.154-.17,2.276-.332,3.405-.409a6.317,6.317,0,0,1,5.545,2.59A16.115,16.115,0,0,1,31.2,33.57a24.582,24.582,0,0,1-.5,5.717" transform="translate(0 1.148)" fill="#231f20"/>
      <path id="Path_285" data-name="Path 285" d="M181.488,5.083a1.348,1.348,0,0,0-1.449,1.789c2.217,5.948,8.456,23.643,11.625,32.843a5.949,5.949,0,0,1,.276,3.15c-.493,2.647-1.159,8.4-1.656,10.908a1.187,1.187,0,0,0,1.041,1.526c2.986.508,9.937,1.654,12.939,2.165a1.521,1.521,0,0,0,1.544-1.1c.437-2.533,1.381-8.033,1.833-10.894a6.189,6.189,0,0,1,1.236-2.9c5.812-7.644,17.064-21.525,20.986-26.417a1.317,1.317,0,0,0-.739-2.1c-3.356-.976-15.469-3.638-15.578-3.665-1.064-.276-1.31.037-1.765.808-3.019,5.134-8.772,14.235-8.869,14.374-.049-.163-2.929-11.032-4.2-16.879-.192-.878-.6-1.133-1.422-1.337Z" transform="translate(25.46 0.717)" fill="#231f20"/>
      <path id="Path_286" data-name="Path 286" d="M86.031,7.686A26.282,26.282,0,0,0,55.676,6.16c-8.327,5.462-12.248,13.319-11.642,22.094.66,5.972,2.232,10.124,5.042,13.7C59.951,55.627,79.555,54.966,89.67,40.6c7.3-10.419,6.1-24.95-3.639-32.91M69.959,36.773c-5.036.443-9.575-3.615-10.06-9.083-.5-5.584,3.342-10.674,8.466-11.126,5.347-.473,9.849,3.7,10.176,9.337.322,5.558-3.555,10.425-8.583,10.871" transform="translate(6.221 0.291)" fill="#231f20"/>
      <path id="Path_287" data-name="Path 287" d="M186.058,28.636a1.27,1.27,0,0,0-1.092-1.386c-1.574-.219-4.6-.78-10.782-1.446-5.65-.61-8.365-.833-9.737-.989a1.194,1.194,0,0,0-1.321,1.042L162.1,33.064A1.2,1.2,0,0,0,163.16,34.4c.944.1,2.224.234,3,.326.481.056.482.483.277.653a7.917,7.917,0,0,1-5.223,1.654c-5.056-.079-9.471-4.657-9.389-10.145.083-5.606,4.76-10.473,9.892-10.119a8.483,8.483,0,0,1,7.474,4.871,1.177,1.177,0,0,0,1.636.467l11.608-6.747a1.181,1.181,0,0,0,.415-1.64,22.373,22.373,0,0,0-3.043-3.9,25.679,25.679,0,0,0-29.636-4.7c-8.848,4.572-13.9,11.7-14.2,20.491.04,6.008,1.234,10.857,3.66,14.7a24.894,24.894,0,0,0,40.72,2.236,25.863,25.863,0,0,0,5.708-13.9" transform="translate(19.237 0.333)" fill="#231f20"/>
      <path id="Path_288" data-name="Path 288" d="M139.769,24.481a1.272,1.272,0,0,0-1.224-1.273c-1.588-.064-3.708-.326-10.4-.427-5.683-.086-8.722.072-10.1.051A1.2,1.2,0,0,0,116.836,24l-.217,7.045a1.2,1.2,0,0,0,1.187,1.225c.95.006,2.235.015,3.018.031.483.009.525.434.339.623a7.915,7.915,0,0,1-5.035,2.157c-5.04.417-9.883-3.706-10.338-9.176-.466-5.588,3.711-10.89,8.852-11.04a8.485,8.485,0,0,1,7.916,4.115,1.178,1.178,0,0,0,1.673.3l10.891-7.852a1.179,1.179,0,0,0,.252-1.673,22.269,22.269,0,0,0-3.411-3.588c-8.31-6.889-20.987-8.441-30.185-2.456C93.422,9.133,89.325,17.4,89.885,26.178a27.561,27.561,0,0,0,5.659,14.26c10.8,13.731,29.948,11.789,40.165-1.752,4.57-6.057,4.055-11.781,4.059-14.2" transform="translate(12.71 0)" fill="#231f20"/>
    </g>
  </g>
</svg>
