<svg xmlns="http://www.w3.org/2000/svg" xmlns:xlink="http://www.w3.org/1999/xlink" width="160" height="61.193" viewBox="0 0 160 61.193">
  <defs>
    <clipPath id="clip-path">
      <rect id="Rectangle_729" data-name="Rectangle 729" width="160" height="61.193" fill="#fff"/>
    </clipPath>
  </defs>
  <g id="Nav_DoggyABLogo" transform="translate(0 0)">
    <g id="Group_1726" data-name="Group 1726" transform="translate(0 0)" clip-path="url(#clip-path)">
      <path id="Path_375" data-name="Path 375" d="M49.136,5.593C43.515-3.7,24.56-.531,11.911,8.613A67.974,67.974,0,0,0,1.075,18.244c-.64.674-1.329,1.578-.982,2.144a1.62,1.62,0,0,0,1.26.564c1.236.1,2.267.267,3.357-.491,1.333-.927,3.92-5.676,8.916-9.333,4.789-3.5,8.613-5.636,15.079-6.955,5.492-1.12,10.307-.911,14.178,2.836s2.857,16.17-5.772,29.453C32.16,44.082,17.5,56.118,9.273,52.851S13.751,33.119,19.6,23.8,26.341,13.91,24.7,12.32c-1.116-1.081-4.9,4.054-7.893,7.934C9.177,30.139-2.993,49.622,2.769,54.847c5.954,5.4,17.771,2.7,29.8-7.21C46.345,36.288,55.055,15.375,49.136,5.593" transform="translate(0 0)" fill="#fff"/>
      <path id="Path_376" data-name="Path 376" d="M162.563,22.813a68.446,68.446,0,0,0-12.1,1.513c-5.619,1.189-15.02,4.431-15.02,4.431l.028-.064.219-.5q.2-.454.4-.909.263-.607.523-1.216.3-.71.6-1.42.32-.76.635-1.522t.619-1.521c.188-.471.374-.943.553-1.417q.12-.319.237-.639c.1-.269.176-.539.252-.815.031-.111.337-.981-.064-1.22a2.128,2.128,0,0,0-.479-.227,4.531,4.531,0,0,0-5.468,1.851c-.81,1.243-3.285,6.477-4.964,8.054-1.7,1.6-3.8,2.71-4.446,2.008s-.424-3.416,1.3-6.82q.2-.386.4-.769.419-.8.862-1.579c.1-.181.2-.36.307-.54a1.51,1.51,0,0,0,.3-.7.564.564,0,0,0-.324-.5,1.984,1.984,0,0,0-.319-.08,8.3,8.3,0,0,0-1.352-.2,1.655,1.655,0,0,0-.893.123,2.245,2.245,0,0,0-1.193.788,16.237,16.237,0,0,0-2.648,5.024c-.324.919-1.3,3.512-1.3,3.512a17.821,17.821,0,0,1-2.7,3.458c-1.189.972-3.558,2.819-3.558,2.819s1.133-2.485,2.234-4.394c1.224-2.126,1.326-3.365.8-3.7-.839-.528-1.742-.724-3.5.3s-2.836,4-4.673,5.241-5.457,4.539-6.645,3.134,2.485-6.7,5.079-9.186,6.376-4.646,6.7-3.944.054,2.108,1.513,2.485,2.864-3.133,2.755-3.89-.332-2.54-3.732-2-7.293,2.482-11.259,6.675c-3.462,3.659-3.866,6.671-3.866,6.671s-2.162,2.594-2.755,3.3-3.242,3.08-3.242,3.08a46.822,46.822,0,0,1,2.215-4.863c.756-1.189,1.188-3.3-.973-3.458S90.7,30.377,90.161,31.4a31.433,31.433,0,0,1-4.755,6.106c-1.512,1.242-5.024,3.133-5.943,1.513s-.054-5.133,3.512-8.754,7.756-7.411,9.539-6.331-.817,3,2.131,3.413c1.413.2,2.811-3.836,1.351-5.619s-3.2-1.341-4.755-1.134c-2.571.342-7.294,3.782-9.4,5.835s-4.161,4.377-5.025,4.809a3.463,3.463,0,0,1-3.025.161c-1.081-.486-1.351-1.837-2.864-1.4a2.671,2.671,0,0,0-2.161,2.593,3.469,3.469,0,0,0,.864,1.567,6.514,6.514,0,0,1-1.363,5.033c-1.892,2.161-4.85,3.882-6.525,2.424s-.747-5.543,1.234-7.871c4.647-5.456,7.9-4.5,7.951-5.2s-2.505-1.45-2.505-1.45c-2.216-.324-7.3,1.6-10.059,5.974S56,43,60.328,44.483c5.521,1.891,9.113-1.97,10.966-4.537a9.458,9.458,0,0,0,2.08-5.733,2.424,2.424,0,0,0,1.334.162,5.58,5.58,0,0,0,1.622-.54s-1.946,3.89-1.135,6.537,2.5,3.308,6,2.107a26.255,26.255,0,0,0,5.565-2.971L85.3,42.156s-8.517,4.023-11.924,6.267c-4.084,2.69-11.471,9.726-7.9,13.94s10.212-.594,13.994-5.511,9.347-14.21,9.347-14.21a27.428,27.428,0,0,0,4.7-3.242c2.053-1.837,4.106-4.052,4.106-4.052A2.984,2.984,0,0,0,100.048,38c1.149.167,2.774-.509,4.431-1.405A40.869,40.869,0,0,0,108.693,34l-1.891,3.35S96.154,44.1,92.647,47.181c-4.237,3.717-6.592,7.564-5.241,9.834S94.9,58.886,98.32,55.88c3.295-2.9,6.052-7.348,8.158-11.022s4.539-7.618,4.539-7.618,3.4-2.162,4.592-3.134,4.053-3.565,4.053-3.565.528,2.675,2.879,2.648c2.293-.028,4.1-.9,6.657-2.855,1.751-1.338,3.485-4.764,3.485-4.764L130.2,31.188s-11.152,5.618-16.708,12.333c-4.369,5.279-5.067,7.982-2.635,9.712s8.26-1.349,12.373-5.187a46.955,46.955,0,0,0,7.4-9.564,45.733,45.733,0,0,0,2.593-5.241S141.869,29.3,148.785,28s11.441-1.561,13.291-1.405c2.674.226,4.406,1.463,5.788.081,4.477-4.478-2.835-3.813-5.3-3.863m-87.314,34.8c-1.025,1.053-3.512,2.485-4.917,1.621s-1.346-3.2,3.464-7.288A47.846,47.846,0,0,1,84.078,45.4s-4.993,8.267-8.829,12.211M97.887,51.5c-2.091,2.2-4.385,3.323-5.72,2.526-1.429-.853.74-4.147,3.721-6.523,6.352-5.063,9.223-5.944,9.223-5.944A58.423,58.423,0,0,1,97.887,51.5M121.8,45.4c-2.058,2.023-4.559,4.584-6.775,3.881s.894-5.5,4.04-7.988c6.345-5.008,10.312-6.417,10.312-6.417S125.044,42.21,121.8,45.4" transform="translate(-9.286 -2.786)" fill="#fff"/>
      <path id="Path_377" data-name="Path 377" d="M167.453,14.681a7.287,7.287,0,1,0-7.287-7.287,7.287,7.287,0,0,0,7.287,7.287M164.992,3.434a2.853,2.853,0,0,1,2.461,1.252,2.859,2.859,0,0,1,2.461-1.232,2.946,2.946,0,0,1,2.75,3.132c0,3.333-5.212,4.767-5.212,4.767s-5.212-1.453-5.212-4.787a2.946,2.946,0,0,1,2.75-3.132" transform="translate(-26.27 -0.018)" fill="#fff"/>
    </g>
  </g>
</svg>
