<svg xmlns="http://www.w3.org/2000/svg" width="221.479" height="80" viewBox="0 0 221.479 80">
  <g id="BrandLogo_Bozita_Colour" transform="translate(9604 14901.338)">
    <g id="Group_36" data-name="Group 36" transform="translate(-9603.041 -14834.497)">
      <g id="Group_35" data-name="Group 35" transform="translate(0 0)">
        <g id="Group_34" data-name="Group 34">
          <g id="Group_33" data-name="Group 33">
            <path id="Path_57" data-name="Path 57" d="M11.829,76.385l.521-.9a.334.334,0,0,1,.493-.1,4.809,4.809,0,0,0,2.189.9,1.211,1.211,0,0,0,1.319-1.117c0-.74-.623-1.246-1.841-1.739-1.364-.551-2.726-1.421-2.726-3.131,0-1.289.957-2.783,3.262-2.783a5.1,5.1,0,0,1,2.9.971.36.36,0,0,1,.087.477l-.55.827a.382.382,0,0,1-.508.175,4.744,4.744,0,0,0-2.016-.8,1.154,1.154,0,0,0-1.274,1.015c0,.681.535,1.145,1.71,1.623,1.407.564,3.03,1.406,3.03,3.274A3.062,3.062,0,0,1,15.09,77.95,4.66,4.66,0,0,1,11.9,76.82c-.131-.131-.2-.2-.072-.435" transform="translate(-11.76 -67.515)" fill="#012554"/>
            <path id="Path_58" data-name="Path 58" d="M19.38,68.008a.252.252,0,0,1,.26-.348h1.334a.3.3,0,0,1,.26.2l1.508,5.782H22.8l2.3-5.97a.233.233,0,0,1,.246-.161h.261a.234.234,0,0,1,.246.161l2.319,5.97h.058l1.478-5.782a.3.3,0,0,1,.261-.2h1.333a.253.253,0,0,1,.261.348l-2.74,9.741a.277.277,0,0,1-.26.2h-.232a.247.247,0,0,1-.246-.158L25.5,71.225h-.072l-2.567,6.566a.245.245,0,0,1-.246.158h-.232a.279.279,0,0,1-.26-.2Z" transform="translate(-10.572 -67.515)" fill="#012554"/>
            <path id="Path_59" data-name="Path 59" d="M32.414,67.916a.274.274,0,0,1,.275-.275h5.9a.274.274,0,0,1,.275.275V69.1a.275.275,0,0,1-.275.276H34.3v2.377h3.581a.284.284,0,0,1,.275.275v1.2a.274.274,0,0,1-.275.275H34.3v2.537h4.29a.275.275,0,0,1,.275.276V77.51a.274.274,0,0,1-.275.275h-5.9a.274.274,0,0,1-.275-.275Z" transform="translate(-8.534 -67.495)" fill="#012554"/>
            <path id="Path_60" data-name="Path 60" d="M40.812,67.916a.272.272,0,0,1,.26-.276h3.435a5.073,5.073,0,1,1,0,10.146H41.072a.272.272,0,0,1-.26-.275Zm3.52,8.1a3.312,3.312,0,0,0,0-6.624H42.682v6.624Z" transform="translate(-7.223 -67.495)" fill="#012554"/>
            <rect id="Rectangle_35" data-name="Rectangle 35" width="1.898" height="10.145" rx="0.238" transform="translate(45.471 0.146)" fill="#012554"/>
            <path id="Path_61" data-name="Path 61" d="M55.536,76.385l.521-.9a.335.335,0,0,1,.494-.1,4.8,4.8,0,0,0,2.187.9,1.211,1.211,0,0,0,1.319-1.117c0-.74-.623-1.246-1.841-1.739-1.362-.551-2.725-1.421-2.725-3.131,0-1.289.956-2.783,3.262-2.783a5.1,5.1,0,0,1,2.9.971.358.358,0,0,1,.087.477l-.55.827a.382.382,0,0,1-.508.175,4.744,4.744,0,0,0-2.015-.8,1.155,1.155,0,0,0-1.275,1.015c0,.681.536,1.145,1.711,1.623,1.406.564,3.029,1.406,3.029,3.274A3.063,3.063,0,0,1,58.8,77.95a4.66,4.66,0,0,1-3.189-1.131c-.131-.131-.2-.2-.072-.435" transform="translate(-4.935 -67.515)" fill="#012554"/>
            <path id="Path_62" data-name="Path 62" d="M63.862,67.916a.284.284,0,0,1,.275-.275h1.348a.274.274,0,0,1,.275.275v3.841h4.725V67.916a.275.275,0,0,1,.275-.275h1.333a.284.284,0,0,1,.275.275V77.51a.284.284,0,0,1-.275.275H70.761a.275.275,0,0,1-.275-.275v-4H65.76v4a.274.274,0,0,1-.275.275H64.137a.284.284,0,0,1-.275-.275Z" transform="translate(-3.624 -67.495)" fill="#012554"/>
            <path id="Path_63" data-name="Path 63" d="M78.577,67.776a.272.272,0,0,1,.275-.261h.363l6.028,6.406h.015V67.936a.275.275,0,0,1,.276-.275h1.332a.284.284,0,0,1,.275.275V77.69a.272.272,0,0,1-.275.26H86.52L80.46,71.3h-.014V77.53a.274.274,0,0,1-.275.275H78.852a.284.284,0,0,1-.275-.275Z" transform="translate(-1.326 -67.515)" fill="#012554"/>
            <path id="Path_64" data-name="Path 64" d="M88.157,77.428l4.508-9.752a.26.26,0,0,1,.245-.161h.146a.246.246,0,0,1,.246.161l4.464,9.752a.256.256,0,0,1-.246.377H96.258a.417.417,0,0,1-.421-.289l-.71-1.565H90.794l-.71,1.565a.437.437,0,0,1-.421.289H88.4a.256.256,0,0,1-.246-.377m6.261-3.086-1.449-3.189h-.045L91.5,74.342Z" transform="translate(0.165 -67.515)" fill="#012554"/>
            <path id="Path_65" data-name="Path 65" d="M99.684,69.38H97.465a.276.276,0,0,1-.275-.275V67.916a.277.277,0,0,1,.275-.276H103.8a.276.276,0,0,1,.275.276V69.1a.275.275,0,0,1-.275.275h-2.219v8.13a.286.286,0,0,1-.275.276H99.958a.286.286,0,0,1-.274-.276Z" transform="translate(1.58 -67.495)" fill="#012554"/>
            <path id="Path_66" data-name="Path 66" d="M105.35,67.916a.285.285,0,0,1,.275-.275H107a.274.274,0,0,1,.275.275v5.928a2.111,2.111,0,1,0,4.219.015V67.916a.273.273,0,0,1,.274-.275h1.377a.284.284,0,0,1,.275.275v6.028a4.036,4.036,0,0,1-8.072,0Z" transform="translate(2.855 -67.495)" fill="#012554"/>
            <path id="Path_67" data-name="Path 67" d="M115.516,67.916a.274.274,0,0,1,.275-.275h4.145a3.14,3.14,0,0,1,3.16,3.116,3.2,3.2,0,0,1-2.146,2.927l1.986,3.68a.275.275,0,0,1-.246.421h-1.523a.253.253,0,0,1-.232-.129l-1.926-3.841H117.4v3.7a.285.285,0,0,1-.276.275h-1.332a.274.274,0,0,1-.275-.275Zm4.26,4.347a1.474,1.474,0,0,0,1.434-1.478,1.439,1.439,0,0,0-1.434-1.4h-2.362v2.882Z" transform="translate(4.442 -67.495)" fill="#012554"/>
            <path id="Path_68" data-name="Path 68" d="M123.755,77.428l4.507-9.752a.261.261,0,0,1,.246-.161h.146a.247.247,0,0,1,.246.161l4.464,9.752a.256.256,0,0,1-.247.377h-1.26a.417.417,0,0,1-.421-.289l-.71-1.565h-4.333l-.71,1.565a.437.437,0,0,1-.421.289H124a.256.256,0,0,1-.246-.377m6.261-3.086-1.45-3.189h-.044l-1.42,3.189Z" transform="translate(5.724 -67.515)" fill="#012554"/>
            <g id="Group_31" data-name="Group 31" transform="translate(141.593 0.001)">
              <path id="Path_69" data-name="Path 69" d="M134.229,67.916a.274.274,0,0,1,.275-.275h1.334a.285.285,0,0,1,.275.275v8.13h3.7a.275.275,0,0,1,.275.276V77.51a.274.274,0,0,1-.275.275h-5.3a.274.274,0,0,1-.275-.275Z" transform="translate(-134.229 -67.496)" fill="#012554"/>
              <path id="Path_70" data-name="Path 70" d="M149.961,67.516a5.207,5.207,0,0,1,5.218,5.23,5.34,5.34,0,0,1-2.826,4.638l1.811,2.855a.273.273,0,0,1-.231.435H152.4a.323.323,0,0,1-.234-.143l-1.549-2.624a5.7,5.7,0,0,1-.653.043,5.217,5.217,0,0,1,0-10.433m0,8.55a3.333,3.333,0,1,0-3.319-3.319,3.34,3.34,0,0,0,3.319,3.319" transform="translate(-132.585 -67.516)" fill="#012554"/>
            </g>
            <g id="Group_32" data-name="Group 32" transform="translate(167.142)">
              <path id="Path_71" data-name="Path 71" d="M156.327,67.916a.284.284,0,0,1,.275-.275h1.377a.274.274,0,0,1,.275.275v5.928a2.111,2.111,0,1,0,4.219.015V67.916a.273.273,0,0,1,.274-.275h1.377a.284.284,0,0,1,.275.275v6.028a4.036,4.036,0,0,1-8.072,0Z" transform="translate(-156.327 -67.495)" fill="#012554"/>
              <path id="Path_72" data-name="Path 72" d="M165.23,77.428l4.508-9.752a.259.259,0,0,1,.246-.161h.146a.248.248,0,0,1,.246.161l4.463,9.752a.256.256,0,0,1-.246.377h-1.26a.416.416,0,0,1-.421-.289l-.71-1.565h-4.333l-.71,1.565a.437.437,0,0,1-.421.289h-1.26a.256.256,0,0,1-.247-.377m6.262-3.086-1.45-3.189H170l-1.42,3.189Z" transform="translate(-154.941 -67.515)" fill="#012554"/>
              <path id="Path_73" data-name="Path 73" d="M175.705,67.916a.275.275,0,0,1,.275-.275h1.333a.284.284,0,0,1,.275.275v8.13h3.7a.275.275,0,0,1,.274.276V77.51a.274.274,0,0,1-.274.275H175.98a.275.275,0,0,1-.275-.275Z" transform="translate(-153.301 -67.495)" fill="#012554"/>
              <rect id="Rectangle_36" data-name="Rectangle 36" width="1.898" height="10.145" rx="0.238" transform="translate(30.91 0.146)" fill="#012554"/>
              <path id="Path_74" data-name="Path 74" d="M189.529,69.38H187.31a.276.276,0,0,1-.275-.275V67.916a.277.277,0,0,1,.275-.276h6.335a.276.276,0,0,1,.275.276V69.1a.275.275,0,0,1-.275.275h-2.219v8.13a.285.285,0,0,1-.275.276H189.8a.286.286,0,0,1-.275-.276Z" transform="translate(-151.532 -67.495)" fill="#012554"/>
              <path id="Path_75" data-name="Path 75" d="M197.866,72.9l-3.3-4.841a.268.268,0,0,1,.23-.421h1.479a.291.291,0,0,1,.232.129l2.318,3.336,2.319-3.336a.293.293,0,0,1,.232-.129h1.493a.269.269,0,0,1,.232.421l-3.349,4.826V77.51a.285.285,0,0,1-.275.276h-1.333a.275.275,0,0,1-.275-.276Z" transform="translate(-150.363 -67.495)" fill="#012554"/>
            </g>
          </g>
        </g>
      </g>
    </g>
    <g id="Group_38" data-name="Group 38" transform="translate(-9565.968 -14901.338)">
      <path id="Path_76" data-name="Path 76" d="M194.072,67.751h12.52a.84.84,0,0,0,.832-.946l-7.052-55.053a.843.843,0,0,0-.836-.735H178.771a.839.839,0,0,0-.834.734L170.885,66.8a.839.839,0,0,0,.832.946h12.518a.84.84,0,0,0,.837-.768l.832-8.849.03-.029h6.437a.39.39,0,0,1,.032.029l.83,8.849a.842.842,0,0,0,.837.768m-7.278-19.905,2.36-25.381,2.362,25.381a.03.03,0,0,1-.031.032h-4.659a.029.029,0,0,1-.031-.032" transform="translate(-23.984 -9.497)" fill="#012554"/>
      <g id="Group_37" data-name="Group 37">
        <path id="Path_77" data-name="Path 77" d="M131.9,11.015h12.587a.857.857,0,0,1,.858.857V66.908a.842.842,0,0,1-.843.842H131.9a.837.837,0,0,1-.836-.837V11.851a.835.835,0,0,1,.836-.836" transform="translate(-30.201 -9.497)" fill="#012554"/>
        <path id="Path_78" data-name="Path 78" d="M153.66,66.911V22.49h-7.633a.838.838,0,0,1-.838-.837V11.858a.841.841,0,0,1,.848-.841l32.749,0a.841.841,0,0,1,.827.957l-1.265,9.8a.841.841,0,0,1-.832.721h-9.563V66.912a.843.843,0,0,1-.843.843H154.5a.844.844,0,0,1-.844-.844" transform="translate(-27.996 -9.497)" fill="#012554"/>
        <path id="Path_79" data-name="Path 79" d="M108,22.282a13.907,13.907,0,0,0-2.539-6.561A13.293,13.293,0,0,0,99.8,11.207,20.091,20.091,0,0,0,91.855,9.7,19.661,19.661,0,0,0,83.689,11.3,13.507,13.507,0,0,0,78.13,15.87a14.2,14.2,0,0,0-2.446,6.572q-.387,3.6-.388,12.245v9.808q0,8.855.4,12.387a13.861,13.861,0,0,0,2.554,6.558,13.064,13.064,0,0,0,5.664,4.515,20.052,20.052,0,0,0,7.937,1.509,19.511,19.511,0,0,0,8.158-1.592,13.225,13.225,0,0,0,5.558-4.556,14.048,14.048,0,0,0,2.453-6.585c.26-2.389.394-6.476.394-12.234V34.686a122.728,122.728,0,0,0-.415-12.4m-13.468,32.4c0,1.386-.069,3.556-2.679,3.556s-2.678-2.17-2.678-3.556V24.468c0-1.385.069-3.525,2.678-3.525s2.679,2.14,2.679,3.525Z" transform="translate(-38.91 -9.702)" fill="#012554"/>
        <path id="Path_80" data-name="Path 80" d="M132.755,23.105,122.412,56.264H132.1a.841.841,0,0,1,.842.839v9.809a.841.841,0,0,1-.842.839H102.059a.587.587,0,0,1-.376-1.039c1.322-1.067,3.193-3.182,4.959-7.3,1.449-2.69,11.292-36.918,11.292-36.918H107.841a.839.839,0,0,1-.824-.676,17.425,17.425,0,0,0-5.615-9.771.586.586,0,0,1,.376-1.035H132.1a.841.841,0,0,1,.842.839v9.923a4.261,4.261,0,0,1-.191,1.328" transform="translate(-34.866 -9.497)" fill="#012554"/>
        <path id="Path_81" data-name="Path 81" d="M76.271,40.943q-1.757-2.693-6.68-3.851c2.955-.695,4.825-1.839,5.83-3.159A11.147,11.147,0,0,0,77.028,27.8c0-1,0-2.561,0-3.539,0-9.615-5.141-13.507-19.412-13.507H44.663a.839.839,0,0,0-.839.839V66.951a.839.839,0,0,0,.839.839H61.416c15.627,0,16.6-7.658,16.6-13.348V49.174c0-3.7-.578-6.437-1.745-8.231M63.81,50.909c0,7.158-.923,7.166-4.307,7.166l-1.584,0V42.187h1.1c3,0,4.8.155,4.8,7.051,0,.961,0,1.672,0,1.672M59.051,33.3H57.92V20.776s.482,0,1,0c2.638-.019,4.892,0,4.892,5.36,0,7.286-1.414,7.161-4.76,7.161" transform="translate(-43.824 -9.537)" fill="#012554"/>
      </g>
    </g>
    <g id="Group_44" data-name="Group 44" transform="translate(-9604 -14900.117)">
      <path id="Path_120" data-name="Path 120" d="M23.547,10.758V33.82H10.929v7.886H23.547V67.79h7.888V41.706H44.052V33.82H31.434V10.758Z" transform="translate(-10.929 -10.758)" fill="#f6cc12"/>
      <g id="Group_41" data-name="Group 41" transform="translate(0.001)">
        <path id="Path_121" data-name="Path 121" d="M23.547,10.758H11.634a.784.784,0,0,0-.7.839V33.82H23.547Z" transform="translate(-10.93 -10.758)" fill="#0080c4"/>
      </g>
      <g id="Group_42" data-name="Group 42" transform="translate(20.504)">
        <path id="Path_122" data-name="Path 122" d="M40.578,10.758H28.664V33.82H41.282V11.6a.784.784,0,0,0-.7-.839" transform="translate(-28.664 -10.758)" fill="#0080c4"/>
      </g>
      <g id="Group_43" data-name="Group 43" transform="translate(0.001 30.948)">
        <path id="Path_123" data-name="Path 123" d="M28.664,63.611H40.577a.784.784,0,0,0,.705-.839V37.526H28.664Z" transform="translate(-8.161 -37.526)" fill="#0080c4"/>
        <path id="Path_124" data-name="Path 124" d="M11.634,63.611H23.547V37.526H10.93V62.772a.782.782,0,0,0,.7.839" transform="translate(-10.93 -37.526)" fill="#0080c4"/>
      </g>
    </g>
  </g>
</svg>
