<svg id="BrandLogo_Mjau_White" xmlns="http://www.w3.org/2000/svg" xmlns:xlink="http://www.w3.org/1999/xlink" width="109.594" height="50.838" viewBox="0 0 109.594 50.838">
  <defs>
    <clipPath id="clip-path">
      <rect id="Rectangle_663" data-name="Rectangle 663" width="109.594" height="50.838" fill="#fff"/>
    </clipPath>
  </defs>
  <path id="Path_362" data-name="Path 362" d="M374.34,236.529h0Z" transform="translate(-338.158 -213.614)" fill="#fff"/>
  <g id="Group_1322" data-name="Group 1322">
    <g id="Group_1321" data-name="Group 1321" clip-path="url(#clip-path)">
      <path id="Path_363" data-name="Path 363" d="M547.879,192.19a.068.068,0,0,0-.121.011l-1.047,2.7a.086.086,0,0,0,0,.047.127.127,0,0,0,.022.052.142.142,0,0,0,.044.04.1.1,0,0,0,.049.013q1.359.023,2.72.051a.056.056,0,0,0,.031-.007.048.048,0,0,0,.019-.021.075.075,0,0,0,.007-.037.117.117,0,0,0-.018-.053Z" transform="translate(-493.865 -173.542)" fill="#fff"/>
      <path id="Path_364" data-name="Path 364" d="M294.339,98.338h0Z" transform="translate(-265.889 -88.811)" fill="#fff"/>
      <path id="Path_365" data-name="Path 365" d="M119.324,357.707v0h0Z" transform="translate(-107.791 -323.049)" fill="#fff"/>
      <path id="Path_366" data-name="Path 366" d="M0,4.068,6.817,50.837c33.16-23.728,66.412-5.44,102.777-37.772C80.034,15.725,42.157-9.586,0,4.068M31.465,28.6a.4.4,0,0,1-.064.131.389.389,0,0,1-.111.1.4.4,0,0,1-.146.052c-1.3.2-2.584.421-3.82.666a.4.4,0,0,1-.159,0,.367.367,0,0,1-.138-.06.363.363,0,0,1-.1-.11.375.375,0,0,1-.05-.146Q26.3,24.743,25.7,20.255a.127.127,0,0,0-.018-.052.108.108,0,0,0-.032-.033.121.121,0,0,0-.044-.019.134.134,0,0,0-.028,0l-.043.007a.139.139,0,0,0-.024.011.142.142,0,0,0-.022.016.164.164,0,0,0-.019.021c-1.456,1.908-2.884,3.864-4.245,5.812a.437.437,0,0,1-.053.063.487.487,0,0,1-.059.05.42.42,0,0,1-.067.039.413.413,0,0,1-.073.026.443.443,0,0,1-.073.012h-.03a.4.4,0,0,1-.051,0,.358.358,0,0,1-.077-.018.329.329,0,0,1-.074-.036c-2.106-1.383-5.512-3.309-5.574-3.337s-.144-.1-.257-.051a.2.2,0,0,0-.109.224c.477,3.148.883,6.279,1.318,9.432a.423.423,0,0,1-.008.161.5.5,0,0,1-.06.144.52.52,0,0,1-.1.122.484.484,0,0,1-.14.086c-1.367.552-2.717,1.159-4.011,1.8a.438.438,0,0,1-.16.046h-.029a.326.326,0,0,1-.134-.028.3.3,0,0,1-.123-.1.348.348,0,0,1-.059-.154c-.968-6.82-1.976-13.751-2.995-20.6a.41.41,0,0,1,.011-.169.478.478,0,0,1,.069-.146.545.545,0,0,1,.108-.117.525.525,0,0,1,.139-.081.461.461,0,0,1,.073-.022.411.411,0,0,1,.076-.009.673.673,0,0,1,.083.008.421.421,0,0,1,.079.026,86.648,86.648,0,0,1,8.067,4.4c1.651,1,2.93,1.849,2.978,1.877.065.038.153.1.252-.008.115-.132.3-.4.552-.742.635-.847,1.645-2.19,2.412-3.146,1.125-1.493,4.255-5.184,5.207-6.306a.4.4,0,0,1,.213-.139.545.545,0,0,1,.073-.011.562.562,0,0,1,.146.017.44.44,0,0,1,.131.064.386.386,0,0,1,.1.109.359.359,0,0,1,.053.148c.821,6.16,1.639,12.484,2.432,18.794a.391.391,0,0,1-.01.15m12.942-5.982a5.52,5.52,0,0,1-.655,2.236,6.209,6.209,0,0,1-.684,1.006,6.7,6.7,0,0,1-.877.833,6.009,6.009,0,0,1-.985.631,5.8,5.8,0,0,1-1.093.428,6.369,6.369,0,0,1-1.79.249,6.538,6.538,0,0,1-.864-.06,7.282,7.282,0,0,1-1.338-.317,8.162,8.162,0,0,1-1.277-.561,8.824,8.824,0,0,1-1.179-.774.43.43,0,0,1-.117-.129.366.366,0,0,1-.044-.136.353.353,0,0,1,.01-.143.367.367,0,0,1,.067-.133c.733-.918,1.494-1.854,2.261-2.783a.48.48,0,0,1,.063-.068.436.436,0,0,1,.077-.055.389.389,0,0,1,.086-.037.4.4,0,0,1,.087-.016h.027a.394.394,0,0,1,.065.005.43.43,0,0,1,.086.024.441.441,0,0,1,.08.043.429.429,0,0,1,.069.059l.243.192a2.7,2.7,0,0,0,.367.254,2.142,2.142,0,0,0,.377.17,2.039,2.039,0,0,0,.394.091,2.4,2.4,0,0,0,.834-.046,1.86,1.86,0,0,0,.365-.128,1.723,1.723,0,0,0,.319-.2,1.913,1.913,0,0,0,.28-.27,2.1,2.1,0,0,0,.229-.333,1.765,1.765,0,0,0,.147-.354,1.791,1.791,0,0,0,.067-.381,2.182,2.182,0,0,0-.013-.419c-.453-3.762-.926-7.6-1.4-11.408a.314.314,0,0,1,.087-.262.329.329,0,0,1,.118-.078.366.366,0,0,1,.133-.025c1.17.033,2.384.081,3.62.143a.409.409,0,0,1,.141.033.428.428,0,0,1,.115.074.419.419,0,0,1,.086.108.377.377,0,0,1,.043.131c.454,3.694.906,7.454,1.344,11.176a6.451,6.451,0,0,1,.029,1.225m18.7,4.444a.31.31,0,0,1-.277.174q-1.709.031-3.419.056h0a.36.36,0,0,1-.1-.012.393.393,0,0,1-.087-.037.386.386,0,0,1-.076-.058.358.358,0,0,1-.058-.074q-.554-.935-1.112-1.872a.129.129,0,0,0-.017-.021.122.122,0,0,0-.023-.018.1.1,0,0,0-.027-.012c-2.219-.007-4.368-.009-6.507,0l-.038.01-.022.031q-.387,1-.771,2a.33.33,0,0,1-.048.083.323.323,0,0,1-.07.066.336.336,0,0,1-.086.044.332.332,0,0,1-.1.017c-1.324.028-2.546.062-3.737.1h-.013a.373.373,0,0,1-.172-.043.391.391,0,0,1-.134-.115.383.383,0,0,1-.069-.159.356.356,0,0,1,.015-.182c2.076-5.513,4.28-11.117,6.552-16.66a.3.3,0,0,1,.053-.086.3.3,0,0,1,.08-.061.319.319,0,0,1,.088-.03A.35.35,0,0,1,53,10.2h.029a.409.409,0,0,1,.09.018.385.385,0,0,1,.087.041.392.392,0,0,1,.074.059.405.405,0,0,1,.061.08c3.161,5.168,6.351,10.513,9.75,16.337a.351.351,0,0,1,.048.164.326.326,0,0,1-.033.157m12.824-5.275a5.675,5.675,0,0,1-.22,1.151,5.552,5.552,0,0,1-.452,1.074,6.07,6.07,0,0,1-.684.992,6.23,6.23,0,0,1-.874.839,5.489,5.489,0,0,1-2.111,1.024,6.212,6.212,0,0,1-1.231.168c-.088,0-.175,0-.263,0a6.328,6.328,0,0,1-.992-.08,6.179,6.179,0,0,1-1.207-.325,6.691,6.691,0,0,1-1.15-.574,7.98,7.98,0,0,1-1.087-.822,8.358,8.358,0,0,1-.936-1.031,7.547,7.547,0,0,1-.716-1.138,7.273,7.273,0,0,1-.491-1.237,7.573,7.573,0,0,1-.262-1.325c-.3-2.849-.63-5.884-.956-8.807a.3.3,0,0,1,.013-.127.275.275,0,0,1,.067-.11.291.291,0,0,1,.111-.069.33.33,0,0,1,.108-.017h.026c.874.1,2.212.242,2.975.334a.428.428,0,0,1,.127.033.394.394,0,0,1,.1.07.386.386,0,0,1,.075.1.345.345,0,0,1,.037.119c.309,2.8.65,5.674.95,8.516a3.51,3.51,0,0,0,.113.587,3.044,3.044,0,0,0,.209.534,3.093,3.093,0,0,0,.307.487,3.566,3.566,0,0,0,.409.444,3.615,3.615,0,0,0,.482.376,2.96,2.96,0,0,0,.5.261,2.776,2.776,0,0,0,.532.151,2.956,2.956,0,0,0,.513.045h.054l.135,0,.138-.01.14-.016.143-.021a1.814,1.814,0,0,0,.236-.057,1.912,1.912,0,0,0,.226-.087,1.866,1.866,0,0,0,.212-.115c.014-.009.027-.02.041-.03a2.469,2.469,0,0,0,1.2-1.9h0a2.859,2.859,0,0,0,0-.578c-.166-1.61-.331-3.079-.505-4.634-.118-1.048-.237-2.106-.356-3.217a.287.287,0,0,1,.012-.122.276.276,0,0,1,.17-.175.306.306,0,0,1,.11-.019l2.854.314a.347.347,0,0,1,.124.029.368.368,0,0,1,.1.065.353.353,0,0,1,.073.1.32.32,0,0,1,.035.114c.117,1.1.219,1.966.333,3,.168,1.508.327,2.932.486,4.5a6.462,6.462,0,0,1,.013,1.226" transform="translate(0 0.001)" fill="#fff"/>
    </g>
  </g>
</svg>
